HIERARCHY
ROOT Hips
{
	OFFSET 0.000000 97.167313 0.000000
	CHANNELS 6 Xposition Yposition Zposition Xrotation Yrotation Zrotation
	JOINT Spine
	{
		OFFSET 0.000000 13.784798 0.064400
		CHANNELS 3 Xrotation Yrotation Zrotation
		JOINT Spine1
		{
			OFFSET 0.000000 12.037903 0.404700
			CHANNELS 3 Xrotation Yrotation Zrotation
			JOINT Spine2
			{
				OFFSET 0.000000 17.795601 0.420200
				CHANNELS 3 Xrotation Yrotation Zrotation
				JOINT Neck
				{
					OFFSET 0.000000 39.131302 11.954600
					CHANNELS 3 Xrotation Yrotation Zrotation
					JOINT Head
					{
						OFFSET 0.000000 14.456192 15.627699
						CHANNELS 3 Xrotation Yrotation Zrotation
						JOINT HeadTop_End
						{
							OFFSET 0.000000 15.703506 7.603401
							CHANNELS 3 Xrotation Yrotation Zrotation
							End Site
							{
								OFFSET 0.000000 17.447403 0.000000
							}
						}
					}
				}
				JOINT LeftShoulder
				{
					OFFSET 17.399500 24.608795 1.168800
					CHANNELS 3 Xrotation Yrotation Zrotation
					JOINT LeftArm
					{
						OFFSET 18.980635 5.765305 1.818600
						CHANNELS 3 Xrotation Yrotation Zrotation
						JOINT LeftForeArm
						{
							OFFSET 49.290169 0.000000 0.000000
							CHANNELS 3 Xrotation Yrotation Zrotation
							JOINT LeftHand
							{
								OFFSET 31.562012 0.000000 0.000000
								CHANNELS 3 Xrotation Yrotation Zrotation
								JOINT LeftHandThumb1
								{
									OFFSET 6.133995 -4.388519 7.076070
									CHANNELS 3 Xrotation Yrotation Zrotation
									JOINT LeftHandThumb2
									{
										OFFSET 6.037666 -3.485840 3.485847
										CHANNELS 3 Xrotation Yrotation Zrotation
										JOINT LeftHandThumb3
										{
											OFFSET 6.496506 -3.750763 3.750761
											CHANNELS 3 Xrotation Yrotation Zrotation
											JOINT LeftHandThumb4
											{
												OFFSET 5.616882 -3.242905 3.242910
												CHANNELS 3 Xrotation Yrotation Zrotation
												End Site
												{
													OFFSET -1.254608 7.132141 0.375429
												}
											}
										}
									}
								}
								JOINT LeftHandPinky1
								{
									OFFSET 18.920792 -0.453171 -11.426712
									CHANNELS 3 Xrotation Yrotation Zrotation
									JOINT LeftHandPinky2
									{
										OFFSET 4.919586 0.000000 0.000000
										CHANNELS 3 Xrotation Yrotation Zrotation
										JOINT LeftHandPinky3
										{
											OFFSET 5.233047 0.000000 0.000000
											CHANNELS 3 Xrotation Yrotation Zrotation
											JOINT LeftHandPinky4
											{
												OFFSET 5.571716 0.000000 0.000000
												CHANNELS 3 Xrotation Yrotation Zrotation
												End Site
												{
													OFFSET -3.459808 4.342407 -0.466164
												}
											}
										}
									}
								}
								JOINT LeftHandRing1
								{
									OFFSET 22.726120 -0.094986 -6.500475
									CHANNELS 3 Xrotation Yrotation Zrotation
									JOINT LeftHandRing2
									{
										OFFSET 6.408615 0.000000 0.000000
										CHANNELS 3 Xrotation Yrotation Zrotation
										JOINT LeftHandRing3
										{
											OFFSET 6.150223 0.000000 0.000000
											CHANNELS 3 Xrotation Yrotation Zrotation
											JOINT LeftHandRing4
											{
												OFFSET 6.145386 0.000000 0.000000
												CHANNELS 3 Xrotation Yrotation Zrotation
												End Site
												{
													OFFSET -3.671402 4.923981 -0.202372
												}
											}
										}
									}
								}
								JOINT LeftHandMiddle1
								{
									OFFSET 23.373947 0.000000 0.000001
									CHANNELS 3 Xrotation Yrotation Zrotation
									JOINT LeftHandMiddle2
									{
										OFFSET 6.996567 0.000000 0.000000
										CHANNELS 3 Xrotation Yrotation Zrotation
										JOINT LeftHandMiddle3
										{
											OFFSET 7.015945 0.000000 0.000000
											CHANNELS 3 Xrotation Yrotation Zrotation
											JOINT LeftHandMiddle4
											{
												OFFSET 7.721573 0.000000 0.000000
												CHANNELS 3 Xrotation Yrotation Zrotation
												End Site
												{
													OFFSET -4.651108 6.158463 0.251582
												}
											}
										}
									}
								}
								JOINT LeftHandIndex1
								{
									OFFSET 21.310577 -0.490082 6.209344
									CHANNELS 3 Xrotation Yrotation Zrotation
									JOINT LeftHandIndex2
									{
										OFFSET 7.536453 0.000000 0.000000
										CHANNELS 3 Xrotation Yrotation Zrotation
										JOINT LeftHandIndex3
										{
											OFFSET 7.512344 0.000000 0.000000
											CHANNELS 3 Xrotation Yrotation Zrotation
											JOINT LeftHandIndex4
											{
												OFFSET 10.212402 0.000000 0.000001
												CHANNELS 3 Xrotation Yrotation Zrotation
												End Site
												{
													OFFSET -5.180801 8.690506 1.388433
												}
											}
										}
									}
								}
							}
						}
					}
				}
				JOINT RightShoulder
				{
					OFFSET -17.399500 24.608795 1.168800
					CHANNELS 3 Xrotation Yrotation Zrotation
					JOINT RightArm
					{
						OFFSET -18.980635 5.765305 1.818600
						CHANNELS 3 Xrotation Yrotation Zrotation
						JOINT RightForeArm
						{
							OFFSET -49.290169 0.000000 0.000000
							CHANNELS 3 Xrotation Yrotation Zrotation
							JOINT RightHand
							{
								OFFSET -31.562012 0.000000 0.000000
								CHANNELS 3 Xrotation Yrotation Zrotation
								JOINT RightHandThumb1
								{
									OFFSET -6.133995 -4.388519 7.076070
									CHANNELS 3 Xrotation Yrotation Zrotation
									JOINT RightHandThumb2
									{
										OFFSET -6.037666 -3.485840 3.485847
										CHANNELS 3 Xrotation Yrotation Zrotation
										JOINT RightHandThumb3
										{
											OFFSET -6.496506 -3.750763 3.750761
											CHANNELS 3 Xrotation Yrotation Zrotation
											JOINT RightHandThumb4
											{
												OFFSET -5.616882 -3.242905 3.242910
												CHANNELS 3 Xrotation Yrotation Zrotation
												End Site
												{
													OFFSET 1.254608 7.132141 0.375429
												}
											}
										}
									}
								}
								JOINT RightHandIndex1
								{
									OFFSET -21.310577 -0.490082 6.209344
									CHANNELS 3 Xrotation Yrotation Zrotation
									JOINT RightHandIndex2
									{
										OFFSET -7.536453 0.000000 0.000000
										CHANNELS 3 Xrotation Yrotation Zrotation
										JOINT RightHandIndex3
										{
											OFFSET -7.512344 0.000000 0.000000
											CHANNELS 3 Xrotation Yrotation Zrotation
											JOINT RightHandIndex4
											{
												OFFSET -10.212402 0.000000 0.000001
												CHANNELS 3 Xrotation Yrotation Zrotation
												End Site
												{
													OFFSET 5.180801 8.690506 1.388433
												}
											}
										}
									}
								}
								JOINT RightHandMiddle1
								{
									OFFSET -23.373947 0.000000 0.000001
									CHANNELS 3 Xrotation Yrotation Zrotation
									JOINT RightHandMiddle2
									{
										OFFSET -6.996567 0.000000 0.000000
										CHANNELS 3 Xrotation Yrotation Zrotation
										JOINT RightHandMiddle3
										{
											OFFSET -7.015945 0.000000 0.000000
											CHANNELS 3 Xrotation Yrotation Zrotation
											JOINT RightHandMiddle4
											{
												OFFSET -7.721573 0.000000 0.000000
												CHANNELS 3 Xrotation Yrotation Zrotation
												End Site
												{
													OFFSET 4.651108 6.158463 0.251582
												}
											}
										}
									}
								}
								JOINT RightHandRing1
								{
									OFFSET -22.726120 -0.094986 -6.500475
									CHANNELS 3 Xrotation Yrotation Zrotation
									JOINT RightHandRing2
									{
										OFFSET -6.408615 0.000000 0.000000
										CHANNELS 3 Xrotation Yrotation Zrotation
										JOINT RightHandRing3
										{
											OFFSET -6.150223 0.000000 0.000000
											CHANNELS 3 Xrotation Yrotation Zrotation
											JOINT RightHandRing4
											{
												OFFSET -6.145386 0.000000 0.000000
												CHANNELS 3 Xrotation Yrotation Zrotation
												End Site
												{
													OFFSET 3.671402 4.923981 -0.202372
												}
											}
										}
									}
								}
								JOINT RightHandPinky1
								{
									OFFSET -18.920792 -0.453171 -11.426712
									CHANNELS 3 Xrotation Yrotation Zrotation
									JOINT RightHandPinky2
									{
										OFFSET -4.919586 0.000000 0.000000
										CHANNELS 3 Xrotation Yrotation Zrotation
										JOINT RightHandPinky3
										{
											OFFSET -5.233047 0.000000 0.000000
											CHANNELS 3 Xrotation Yrotation Zrotation
											JOINT RightHandPinky4
											{
												OFFSET -5.571716 0.000000 0.000000
												CHANNELS 3 Xrotation Yrotation Zrotation
												End Site
												{
													OFFSET 3.459808 4.342407 -0.466164
												}
											}
										}
									}
								}
							}
						}
					}
				}
			}
		}
	}
	JOINT LeftUpLeg
	{
		OFFSET 19.899099 -7.885101 -3.429500
		CHANNELS 3 Xrotation Yrotation Zrotation
		JOINT LeftLeg
		{
			OFFSET 1.745560 -36.997807 10.304700
			CHANNELS 3 Xrotation Yrotation Zrotation
			JOINT LeftFoot
			{
				OFFSET -1.745558 -29.803308 -13.615400
				CHANNELS 3 Xrotation Yrotation Zrotation
				JOINT LeftToeBase
				{
					OFFSET 1.181900 -18.539904 15.226099
					CHANNELS 3 Xrotation Yrotation Zrotation
					JOINT LeftToe_End
					{
						OFFSET -0.863701 1.402801 16.534700
						CHANNELS 3 Xrotation Yrotation Zrotation
						End Site
						{
							OFFSET 0.000000 16.616566 0.000000
						}
					}
				}
			}
		}
	}
	JOINT RightUpLeg
	{
		OFFSET -19.899099 -7.885101 -3.429500
		CHANNELS 3 Xrotation Yrotation Zrotation
		JOINT RightLeg
		{
			OFFSET -1.745560 -36.997807 10.304700
			CHANNELS 3 Xrotation Yrotation Zrotation
			JOINT RightFoot
			{
				OFFSET 1.745558 -29.803308 -13.615400
				CHANNELS 3 Xrotation Yrotation Zrotation
				JOINT RightToeBase
				{
					OFFSET -1.181900 -18.539904 15.226099
					CHANNELS 3 Xrotation Yrotation Zrotation
					JOINT RightToe_End
					{
						OFFSET 0.863701 1.402801 16.534700
						CHANNELS 3 Xrotation Yrotation Zrotation
						End Site
						{
							OFFSET 0.000000 16.616566 0.000000
						}
					}
				}
			}
		}
	}
}
MOTION
Frames: 5
Frame Time: 0.033333
-7.952569 86.802406 0.233446 75.744523 -75.401860 76.094789 7.767931 1.211120 1.133799 15.299030 2.230006 1.322006 15.310605 2.242087 1.305143 4.790841 1.240943 2.080496 10.107814 7.623548 3.799985 -0.000002 0.000000 -0.000000 -10.675633 -29.047145 -20.213877 -12.500027 -15.811715 -64.814151 -0.000033 -57.700407 -0.000048 -47.165212 47.562989 34.505255 21.817262 -10.537065 16.834340 14.287735 5.468964 16.273651 -13.251358 21.452041 16.896858 -0.000003 0.000001 -0.000004 1.677014 6.539506 -33.824514 5.030093 5.793387 -81.920121 1.074640 3.383377 -35.233422 -0.000000 -0.000005 -0.000003 -1.387679 2.855884 -40.868925 6.488217 5.816391 -96.262186 1.727875 4.154990 -45.145436 0.000000 -0.000003 0.000005 -3.946827 0.614631 -44.455751 5.616871 5.846399 -87.702231 1.592110 4.015745 -43.240254 0.000000 -0.000002 0.000004 -2.436557 -1.118903 -27.392270 6.241403 5.838083 -93.831677 3.250781 5.243292 -63.574581 -0.000001 -0.000000 -0.000001 -2.331973 16.302311 20.324560 -42.281279 9.569699 67.722193 0.000007 27.206467 0.000005 -20.336028 -31.200328 -1.823469 -4.896614 -21.001064 -24.132382 -15.931302 -14.443031 3.554777 -4.461487 -1.630485 -2.443236 -0.000000 0.000003 0.000003 0.570518 0.087426 -17.559103 2.902351 -4.314595 67.842254 2.282482 -4.007384 59.315159 -0.000002 0.000000 0.000002 -3.075707 6.856770 18.099438 5.082673 -4.637727 95.247972 3.334814 -4.465886 73.487501 0.000000 -0.000001 -0.000008 -9.985795 10.197669 36.824658 4.506683 -4.654747 88.146221 2.243607 -3.984130 58.757351 -0.000001 -0.000001 0.000002 -6.996007 1.660187 49.601356 1.053682 -2.952222 39.277126 3.505789 -4.512893 75.671379 0.000001 -0.000000 0.000006 -39.962112 2.454568 2.421964 29.158446 0.463390 5.496465 -3.525153 1.289900 -7.840910 -0.900822 2.373793 -1.624035 -0.000000 0.000000 -0.000000 -42.625479 -3.618116 -6.816136 28.409704 6.370920 -0.172040 -0.607048 3.620886 3.636356 -1.005520 0.000014 -0.000000 -0.000000 0.000000 0.000000 
-7.979606 86.807732 0.211910 75.623329 -75.388944 76.002035 7.755591 1.244654 1.156702 15.297566 2.248293 1.320909 15.309989 2.257700 1.303409 4.792246 1.213652 2.020146 10.188693 7.416868 3.748636 0.000001 0.000002 0.000001 -10.640521 -29.034813 -20.128936 -12.490597 -15.742068 -64.791106 0.000007 -57.679363 -0.000003 -46.944129 47.628289 34.045658 21.810445 -10.545304 16.812108 14.247630 5.408833 16.275936 -13.251513 21.468656 16.904399 0.000001 -0.000000 -0.000004 1.675762 6.538801 -33.790315 5.036999 5.794337 -81.988566 1.078650 3.389065 -35.301467 0.000002 0.000000 -0.000006 -1.412328 2.839243 -40.970743 6.495516 5.815579 -96.334450 1.733087 4.160152 -45.217321 -0.000000 -0.000001 0.000008 -3.958205 0.615267 -44.516629 5.617182 5.846404 -87.705079 1.592111 4.015747 -43.240254 0.000001 0.000000 0.000001 -2.472520 -1.114610 -27.674519 6.225600 5.839109 -93.676352 3.236627 5.236276 -63.419584 -0.000000 0.000001 -0.000001 -2.339682 16.333687 20.360871 -42.204623 9.608029 67.738340 0.000013 27.291438 0.000010 -20.506369 -31.172591 -2.179095 -4.962394 -20.839706 -24.173054 -15.774566 -14.845153 3.776190 -4.596480 -1.432281 -2.658923 0.000002 -0.000001 0.000002 0.541313 0.020461 -17.103045 2.891418 -4.310146 67.697119 2.272339 -4.001383 59.170113 -0.000001 0.000002 -0.000001 -3.175336 6.812406 18.663202 5.085567 -4.637479 95.283591 3.334814 -4.465887 73.487501 0.000001 0.000000 -0.000008 -10.073035 10.136016 37.153801 4.508695 -4.654808 88.170905 2.243607 -3.984130 58.757351 -0.000001 -0.000002 -0.000003 -7.385245 1.774773 50.431637 1.057935 -2.957400 39.359638 3.512350 -4.514580 75.754735 0.000002 0.000000 0.000004 -39.930396 2.462909 2.402675 29.113681 0.436940 5.495618 -3.513253 1.291506 -7.853033 -0.913015 2.362756 -1.611942 0.000000 0.000000 -0.000000 -42.614250 -3.597805 -6.830584 28.453626 6.336194 -0.185011 -0.665200 3.618151 3.634316 -1.006111 -0.000002 0.000003 0.000000 0.000000 0.000000 
-8.007099 86.811829 0.187793 75.509968 -75.380666 75.920428 7.740276 1.312632 1.196464 15.287785 2.291459 1.323163 15.301743 2.298535 1.301846 4.784656 1.196765 1.952663 10.213634 7.241543 3.720114 -0.000001 -0.000001 -0.000000 -10.604912 -29.060040 -20.038452 -12.537543 -15.696716 -64.830523 -0.000005 -57.588815 -0.000023 -46.645264 47.724765 33.565131 21.791269 -10.592218 16.806722 14.210636 5.381479 16.287018 -13.248909 21.480194 16.902901 0.000002 0.000002 0.000003 1.678432 6.542233 -33.804898 5.040561 5.794834 -82.024083 1.080734 3.391989 -35.336708 -0.000002 -0.000001 -0.000004 -1.440609 2.814323 -41.037231 6.503088 5.814742 -96.409172 1.738488 4.165495 -45.291674 0.000000 0.000001 0.000003 -3.973380 0.615739 -44.595555 5.616191 5.846335 -87.695422 1.592107 4.015746 -43.240254 -0.000000 -0.000003 0.000004 -2.511878 -1.084889 -28.074801 6.204518 5.840432 -93.469097 3.217776 5.226807 -63.212752 -0.000002 0.000003 0.000004 -2.339487 16.324528 20.364774 -42.105463 9.531088 67.757041 0.000009 27.451186 0.000009 -20.666633 -31.171764 -2.522627 -5.045574 -20.677593 -24.226276 -15.568646 -15.349112 4.055643 -4.738189 -1.203250 -2.924144 -0.000001 0.000005 0.000003 0.509312 -0.052887 -16.542221 2.875347 -4.303519 67.482966 2.257435 -3.992477 58.956171 -0.000000 -0.000005 -0.000002 -3.281891 6.727553 19.325067 5.090294 -4.637030 95.342331 3.334814 -4.465886 73.487494 -0.000000 -0.000000 -0.000004 -10.156659 10.069399 37.481817 4.511325 -4.654874 88.203458 2.243607 -3.984127 58.757351 0.000001 -0.000001 -0.000003 -7.795525 1.887968 51.276358 1.066205 -2.967449 39.519785 3.525036 -4.517774 75.916111 -0.000000 -0.000001 0.000004 -39.893045 2.468031 2.379393 29.071280 0.419068 5.503097 -3.505859 1.293443 -7.873851 -0.898473 2.387887 -1.635639 0.000000 0.000001 -0.000000 -42.602659 -3.571680 -6.845645 28.503879 6.302219 -0.194221 -0.725616 3.613249 3.629709 -1.022393 0.000016 0.000002 -0.000000 0.000000 0.000000 
-8.034622 86.814117 0.160733 75.431359 -75.375809 75.872105 7.727984 1.352639 1.222282 15.280344 2.313995 1.322034 15.295309 2.318477 1.299228 4.787840 1.193480 1.869136 10.215911 7.111900 3.673323 0.000001 -0.000000 -0.000000 -10.616819 -29.024957 -20.071829 -12.463781 -15.711518 -64.716828 0.000019 -57.606478 0.000022 -46.531142 47.844396 33.279745 21.759545 -10.673308 16.825053 14.180829 5.393397 16.310230 -13.241561 21.491183 16.889355 0.000001 0.000004 0.000002 1.682452 6.547113 -33.835842 5.042017 5.795046 -82.038358 1.081575 3.393174 -35.350877 -0.000002 -0.000000 -0.000001 -1.469499 2.784101 -41.064545 6.509173 5.814063 -96.468943 1.742803 4.169737 -45.351148 -0.000001 0.000004 0.000000 -3.992676 0.614871 -44.688429 5.614126 5.846301 -87.675102 1.592109 4.015745 -43.240258 0.000001 -0.000001 0.000004 -2.556133 -1.049942 -28.529108 6.182363 5.841719 -93.251582 3.198011 5.216853 -62.995661 0.000000 0.000001 -0.000001 -2.340314 16.322243 20.371871 -42.067446 9.486705 67.806853 -0.000003 27.515719 0.000005 -20.770436 -31.162438 -2.777489 -5.143542 -20.517159 -24.287234 -15.329299 -15.915212 4.373044 -4.879854 -0.958300 -3.220328 0.000001 0.000000 0.000002 0.476138 -0.131204 -15.925730 2.856910 -4.295858 67.237106 2.240351 -3.982157 58.710530 -0.000000 0.000000 0.000001 -3.381801 6.605632 20.018475 5.097149 -4.636373 95.427155 3.334813 -4.465887 73.487501 0.000000 0.000000 -0.000008 -10.225962 10.010029 37.760629 4.512698 -4.654941 88.220240 2.243605 -3.984130 58.757351 0.000000 -0.000000 -0.000002 -8.177435 1.978421 52.065347 1.074753 -2.977755 39.684475 3.538115 -4.521038 76.082017 0.000001 0.000001 0.000004 -39.855185 2.470723 2.365122 29.037293 0.407291 5.508595 -3.506344 1.297277 -7.899314 -0.895128 2.389331 -1.637749 -0.000000 0.000001 -0.000000 -42.595419 -3.555578 -6.853563 28.555452 6.280935 -0.203282 -0.781847 3.610147 3.616665 -1.040573 -0.000029 -0.000002 -0.000000 -0.000000 -0.000000 
-8.061684 86.814377 0.130390 75.406812 -75.375365 75.872316 7.714322 1.385154 1.242026 15.273864 2.328048 1.314853 15.289846 2.328095 1.292160 4.790174 1.196900 1.777525 10.236699 7.006694 3.621598 -0.000000 -0.000000 0.000000 -10.618907 -28.986609 -20.081437 -12.413671 -15.702607 -64.648642 0.000018 -57.650505 -0.000006 -46.463957 47.965823 33.108348 21.725551 -10.765571 16.862330 14.164778 5.441552 16.338315 -13.230372 21.504019 16.867005 -0.000001 0.000003 -0.000001 1.685564 6.551023 -33.856227 5.042912 5.795189 -82.047292 1.082107 3.393909 -35.359736 -0.000002 -0.000007 -0.000007 -1.494014 2.755773 -41.065225 6.512039 5.813727 -96.497322 1.744852 4.171784 -45.379388 -0.000001 -0.000000 0.000005 -4.014209 0.614047 -44.792394 5.611107 5.846161 -87.645479 1.592108 4.015745 -43.240254 -0.000001 -0.000001 0.000001 -2.602461 -1.025787 -28.954808 6.164209 5.842715 -93.073069 3.181834 5.208607 -62.817503 -0.000000 -0.000000 -0.000001 -2.341928 16.362476 20.360391 -42.010578 9.455570 67.827173 0.000007 27.605461 -0.000005 -20.907537 -31.188116 -2.983415 -5.250614 -20.355683 -24.348272 -15.082709 -16.485206 4.697390 -5.016464 -0.716419 -3.519979 -0.000002 0.000000 0.000002 0.444098 -0.210346 -15.312007 2.839255 -4.288435 67.001212 2.224005 -3.972198 58.474834 -0.000000 -0.000001 -0.000001 -3.462974 6.460846 20.666103 5.105944 -4.635545 95.535796 3.334812 -4.465887 73.487501 0.000000 -0.000000 -0.000006 -10.273268 9.967852 37.953695 4.511078 -4.654893 88.200459 2.243607 -3.984128 58.757351 -0.000000 -0.000001 -0.000003 -8.480523 2.029220 52.730457 1.079338 -2.983270 39.772752 3.545134 -4.522769 76.171089 -0.000000 -0.000002 0.000007 -39.820365 2.482638 2.370914 29.017533 0.391429 5.503831 -3.517731 1.301818 -7.920810 -0.918564 2.390312 -1.631582 -0.000000 0.000001 -0.000000 -42.589942 -3.534255 -6.843331 28.604718 6.261992 -0.217253 -0.831841 3.604364 3.603281 -1.019798 0.000029 -0.000004 -0.000000 0.000000 0.000000 
